<svg width="64" height="64" viewBox="0 0 64 64" fill="none" xmlns="http://www.w3.org/2000/svg">
<g clip-path="url(#clip0_28_305)">
<mask id="mask0_28_305" style="mask-type:luminance" maskUnits="userSpaceOnUse" x="0" y="0" width="64" height="63">
<path d="M0.651062 0H63.3438V62.6928H0.651062V0Z" fill="white"/>
</mask>
<g mask="url(#mask0_28_305)">
<path d="M31.9844 5.65096C40.3542 5.65096 41.3386 5.68221 44.6511 5.83325C47.7031 5.96867 49.3646 6.47909 50.474 6.91659C51.9323 7.47909 52.974 8.16659 54.0729 9.26554C55.1719 10.3645 55.849 11.4062 56.4219 12.8645C56.849 13.9635 57.3594 15.6249 57.5104 18.6874C57.6615 21.9999 57.6875 22.9895 57.6875 31.3541C57.6875 39.7187 57.6615 40.7083 57.5104 44.0208C57.3698 47.0676 56.8646 48.7291 56.4219 49.8437C55.8594 51.2968 55.1719 52.3437 54.0729 53.4426C52.974 54.5416 51.9323 55.2135 50.474 55.7916C49.375 56.2187 47.7136 56.7239 44.6511 56.8749C41.3386 57.026 40.3542 57.0572 31.9844 57.0572C23.6198 57.0572 22.6302 57.026 19.3229 56.8749C16.2709 56.7395 14.6094 56.2291 13.4948 55.7916C12.0417 55.2291 10.9948 54.5416 9.89585 53.4426C8.7969 52.3437 8.12502 51.2968 7.5469 49.8437C7.12502 48.7447 6.6146 47.0833 6.46356 44.0208C6.31252 40.7083 6.28648 39.7187 6.28648 31.3541C6.28648 22.9895 6.31252 21.9999 6.46356 18.6874C6.59898 15.6405 7.1094 13.9791 7.5469 12.8645C8.1146 11.4062 8.7969 10.3645 9.89585 9.26554C10.9948 8.16659 12.0417 7.49471 13.4948 6.91659C14.5938 6.4895 16.2604 5.98429 19.3229 5.83325C22.6302 5.68221 23.6198 5.65096 31.9844 5.65096ZM31.9844 0.00512695C23.4688 0.00512695 22.4115 0.0467936 19.0625 0.197836C15.724 0.348877 13.4427 0.885335 11.4479 1.65617C9.39065 2.45304 7.64585 3.52596 5.90106 5.26554C4.1719 7.01033 3.09898 8.75513 2.3021 10.8176C1.53127 12.8072 0.994813 15.0885 0.84377 18.427C0.692729 21.7655 0.651062 22.8385 0.651062 31.3385C0.651062 39.8541 0.692729 40.9166 0.84377 44.2655C0.994813 47.6041 1.53127 49.8853 2.3021 51.8749C3.09898 53.9374 4.1719 55.6822 5.91669 57.427C7.65627 59.1718 9.40106 60.2395 11.4636 61.0364C13.4531 61.8072 15.7344 62.3437 19.0729 62.4947C22.4115 62.6458 23.4844 62.6874 32 62.6874C40.5156 62.6874 41.5729 62.6458 44.9271 62.4947C48.2656 62.3437 50.5469 61.8072 52.5365 61.0364C54.599 60.2395 56.3438 59.1718 58.0834 57.427C59.8281 55.6822 60.9011 53.9374 61.6979 51.8749C62.4688 49.8853 63.0052 47.6041 63.1563 44.2655C63.3073 40.927 63.349 39.8541 63.349 31.3385C63.349 22.8228 63.3073 21.7655 63.1563 18.4114C63.0052 15.078 62.4688 12.7968 61.6979 10.802C60.9011 8.74471 59.8281 6.99992 58.0834 5.25513C56.3438 3.51033 54.599 2.43742 52.5365 1.64054C50.5469 0.869711 48.2656 0.33846 44.9271 0.187419C41.5729 0.0467936 40.5052 0.00512695 31.9844 0.00512695Z" fill="#1B2133"/>
</g>
<path d="M31.9844 15.2551C23.0989 15.2551 15.901 22.4531 15.901 31.3385C15.901 40.2291 23.1146 47.4375 32 47.4375C40.8854 47.4375 48.099 40.2395 48.099 31.3385C48.0833 22.4531 40.875 15.2551 31.9844 15.2551ZM31.9844 41.7916C26.2187 41.7916 21.5468 37.1249 21.5468 31.3541C21.5468 25.5833 26.2187 20.9114 31.9844 20.9114C37.7552 20.9114 42.4271 25.5833 42.4271 31.3541C42.4375 37.1093 37.7552 41.7916 31.9844 41.7916Z" fill="#1B2133"/>
<path d="M52.4792 14.625C52.4792 16.6979 50.7917 18.3854 48.7188 18.3854C46.6406 18.3854 44.9531 16.6979 44.9531 14.625C44.9531 12.5469 46.6406 10.8594 48.7188 10.8594C50.7917 10.8594 52.4792 12.5365 52.4792 14.625Z" fill="#1B2133"/>
</g>
<defs>
<clipPath id="clip0_28_305">
<rect width="64" height="64" fill="white"/>
</clipPath>
</defs>
</svg>
