<svg width="64" height="64" viewBox="0 0 64 64" fill="none" xmlns="http://www.w3.org/2000/svg">
<g clip-path="url(#clip0_28_227)">
<mask id="mask0_28_227" style="mask-type:luminance" maskUnits="userSpaceOnUse" x="0" y="0" width="64" height="63">
<path d="M0.651062 0H63.3438V62.6928H0.651062V0Z" fill="white"/>
</mask>
<g mask="url(#mask0_28_227)">
<path d="M58.1094 0H5.9219C3.03648 0 0.713562 2.35417 0.713562 5.20834V57.4897C0.713562 60.3751 3.06773 62.6928 5.9219 62.6928H58.0781C60.9636 62.6928 63.2865 60.3438 63.2865 57.4897V5.20834C63.3177 2.35417 60.9948 0 58.1094 0ZM19.25 51.7188H10V23.9271H19.25V51.7188ZM14.6094 20.5729C11.6927 20.5729 9.33856 18.224 9.33856 15.3073C9.33856 12.3906 11.6927 10.0365 14.6094 10.0365C17.5261 10.0365 19.8802 12.3906 19.8802 15.3073C19.8802 18.224 17.5261 20.5729 14.6094 20.5729ZM54.0625 51.7188H44.7813L44.5625 35.2188C44.5625 35.2188 44.7813 30.8282 39.9844 30.8594C35.1823 30.8907 34.5261 35.2188 34.5261 35.2188V51.7188H25.1771V23.9271H34.1459V27.7552C34.1459 27.7552 34.5261 26.5 36.5938 25.0261C38.6667 23.5521 42.0834 23.2396 43.5573 23.3021C45.0313 23.3646 47.0365 23.1146 50.3959 25.4375C54 27.9115 54.0938 34.4063 54.0938 34.4063L54.0625 51.7188Z" fill="#1B2133"/>
</g>
</g>
<defs>
<clipPath id="clip0_28_227">
<rect width="64" height="64" fill="white"/>
</clipPath>
</defs>
</svg>
