<svg width="64" height="64" viewBox="0 0 64 64" fill="none" xmlns="http://www.w3.org/2000/svg">
<g clip-path="url(#clip0_28_233)">
<mask id="mask0_28_233" style="mask-type:luminance" maskUnits="userSpaceOnUse" x="0" y="0" width="64" height="63">
<path d="M0.651062 0H63.3438V62.6928H0.651062V0Z" fill="white"/>
</mask>
<g mask="url(#mask0_28_233)">
<path d="M55.5104 62.6928H8.4896C4.16148 62.6928 0.651062 59.1824 0.651062 54.8594V7.83855C0.651062 3.51042 4.16148 0 8.4896 0H55.5104C59.8386 0 63.349 3.51042 63.349 7.83855V54.8594C63.349 59.1824 59.8386 62.6928 55.5104 62.6928Z" fill="#1B2133"/>
</g>
<path d="M24.7292 47.2708C39.5052 47.2708 47.5938 35.0156 47.5938 24.401C47.5938 24.0573 47.5938 23.7135 47.5781 23.3698C49.1458 22.2396 50.5104 20.8125 51.5938 19.1979C50.151 19.8438 48.599 20.2656 46.9688 20.4687C48.6302 19.4844 49.901 17.901 50.5104 16.0208C48.9583 16.9427 47.2344 17.599 45.401 17.9635C43.9271 16.3958 41.8438 15.4219 39.5365 15.4219C35.1042 15.4219 31.5 19.026 31.5 23.4635C31.5 24.0885 31.5781 24.7031 31.7031 25.2969C25.026 24.9688 19.099 21.7552 15.1354 16.8958C14.4479 18.0885 14.0521 19.4687 14.0521 20.9375C14.0521 23.7292 15.4792 26.1927 17.625 27.6302C16.3125 27.5833 15.0729 27.224 13.9896 26.6302C13.9896 26.6615 13.9896 26.6927 13.9896 26.7396C13.9896 30.625 16.7656 33.8854 20.4323 34.625C19.7604 34.8125 19.0521 34.9062 18.3177 34.9062C17.8021 34.9062 17.2969 34.8594 16.8125 34.7656C17.8333 37.9635 20.8073 40.2813 24.3177 40.3438C21.5625 42.5052 18.099 43.7917 14.3385 43.7917C13.6927 43.7917 13.0521 43.7604 12.4219 43.6823C15.9635 45.9375 20.1979 47.2708 24.7292 47.2708Z" fill="#33415A"/>
</g>
<defs>
<clipPath id="clip0_28_233">
<rect width="64" height="64" fill="white"/>
</clipPath>
</defs>
</svg>
