<svg width="80" height="80" viewBox="0 0 80 80" fill="none" xmlns="http://www.w3.org/2000/svg">
<g clip-path="url(#clip0_21_94)">
<path fill-rule="evenodd" clip-rule="evenodd" d="M40 0.944946C25.3169 0.944946 13.4094 12.8493 13.4094 27.5356C13.4094 39.2837 21.0281 49.2512 31.5938 52.7668C32.9225 53.0131 33.4106 52.1899 33.4106 51.4874C33.4106 50.8537 33.3856 48.7587 33.3744 46.5374C25.9763 48.1456 24.4156 43.3999 24.4156 43.3999C23.2063 40.3262 21.4631 39.5087 21.4631 39.5087C19.0506 37.8587 21.6444 37.8924 21.6444 37.8924C24.315 38.0799 25.7213 40.6331 25.7213 40.6331C28.0925 44.6981 31.9419 43.5224 33.4588 42.8431C33.6981 41.1243 34.3869 39.9506 35.1475 39.2868C29.2413 38.6149 23.0325 36.3343 23.0325 26.1456C23.0325 23.2424 24.0713 20.8706 25.7725 19.0081C25.4963 18.3381 24.5863 15.6331 26.03 11.9706C26.03 11.9706 28.2625 11.2568 33.3425 14.6974C35.4644 14.1081 37.7394 13.8124 39.9988 13.8024C42.2588 13.8131 44.535 14.1087 46.66 14.6974C51.735 11.2574 53.965 11.9712 53.965 11.9712C55.4125 15.6337 54.5025 18.3381 54.2263 19.0087C55.9313 20.8699 56.9625 23.2424 56.9625 26.1462C56.9625 36.3587 50.7419 38.6074 44.8206 39.2649C45.7744 40.0899 46.6244 41.7087 46.6244 44.1899C46.6244 47.7474 46.5944 50.6106 46.5944 51.4862C46.5944 52.1924 47.0731 53.0224 48.4206 52.7612C58.9806 49.2412 66.5894 39.2774 66.5894 27.5331C66.5906 12.8499 54.6856 0.944946 40 0.944946Z" fill="#33415A"/>
<path d="M23.4813 39.1225C23.4219 39.255 23.2138 39.2943 23.025 39.2037C22.8313 39.1162 22.7238 38.9368 22.7863 38.8037C22.8425 38.6687 23.0513 38.6306 23.2444 38.7212C23.4381 38.8087 23.5475 38.99 23.4813 39.1225ZM24.5581 40.325C24.4313 40.4418 24.1831 40.3875 24.0144 40.2012C23.8406 40.0156 23.8081 39.7675 23.9369 39.6487C24.0669 39.5312 24.3075 39.5862 24.4806 39.7718C24.6556 39.9593 24.69 40.205 24.5575 40.3243L24.5581 40.325ZM25.6063 41.855C25.4438 41.9687 25.1769 41.8625 25.0125 41.6256C24.8488 41.39 24.8488 41.1068 25.0156 40.9925C25.1806 40.8787 25.4431 40.9812 25.6094 41.2156C25.7731 41.4562 25.7731 41.74 25.6063 41.855ZM27.0425 43.335C26.8969 43.4956 26.5863 43.4525 26.3594 43.2331C26.1269 43.0187 26.0625 42.7143 26.2081 42.5537C26.3563 42.3931 26.6681 42.4381 26.8969 42.6556C27.1281 42.8693 27.1981 43.175 27.0425 43.335ZM29.025 44.1937C28.96 44.4025 28.6613 44.4968 28.36 44.4087C28.0588 44.3175 27.8625 44.0737 27.9225 43.8637C27.985 43.6537 28.2863 43.5556 28.5894 43.65C28.8894 43.74 29.0869 43.9812 29.025 44.1937ZM31.2 44.3531C31.2081 44.5718 30.9525 44.7543 30.6363 44.7581C30.3188 44.7656 30.0613 44.5881 30.0575 44.3718C30.0575 44.1506 30.3075 43.9706 30.625 43.9656C30.9413 43.9593 31.2 44.1356 31.2 44.3531ZM33.225 44.0087C33.2625 44.2225 33.0438 44.4425 32.7294 44.5006C32.4206 44.5581 32.1356 44.4256 32.0956 44.2131C32.0581 43.9943 32.2813 43.7756 32.5894 43.7181C32.9038 43.6631 33.185 43.7912 33.225 44.0087Z" fill="#33415A"/>
<path d="M15.5344 67.6887H8.84688C8.764 67.6887 8.68451 67.7216 8.62591 67.7802C8.5673 67.8388 8.53438 67.9183 8.53438 68.0012V71.2712C8.53438 71.3541 8.5673 71.4336 8.62591 71.4922C8.68451 71.5508 8.764 71.5837 8.84688 71.5837H11.455V75.6462C11.455 75.6462 10.8694 75.8462 9.24875 75.8462C7.33875 75.8462 4.66938 75.1487 4.66938 69.2787C4.66938 63.4081 7.44938 62.635 10.0594 62.635C12.3181 62.635 13.2906 63.0324 13.9106 63.2243C14.1044 63.2831 14.2856 63.0893 14.2856 62.9168L15.0313 59.7574C15.0325 59.7101 15.0222 59.6633 15.0013 59.6208C14.9804 59.5783 14.9495 59.5416 14.9113 59.5137C14.6594 59.3337 13.1256 58.4762 9.25 58.4762C4.785 58.4762 0.205002 60.3749 0.205002 69.5074C0.205002 78.6387 5.44875 79.9993 9.8675 79.9993C13.5263 79.9993 15.7456 78.4356 15.7456 78.4356C15.8369 78.3856 15.8469 78.2574 15.8469 78.1981V68.0006C15.8469 67.9177 15.814 67.8382 15.7553 67.7796C15.6967 67.721 15.6173 67.6887 15.5344 67.6887ZM49.6912 59.2562H45.925C45.8839 59.2564 45.8433 59.2646 45.8054 59.2805C45.7675 59.2964 45.7331 59.3196 45.7042 59.3488C45.6753 59.378 45.6524 59.4126 45.6369 59.4507C45.6214 59.4887 45.6135 59.5295 45.6138 59.5706L45.615 66.8481H39.745V59.5706C39.7452 59.5295 39.7374 59.4889 39.7219 59.4508C39.7065 59.4128 39.6836 59.3782 39.6548 59.3491C39.626 59.3199 39.5916 59.2966 39.5538 59.2807C39.516 59.2648 39.4754 59.2564 39.4344 59.2562H35.6688C35.6277 59.2564 35.587 59.2646 35.5491 59.2805C35.5112 59.2964 35.4768 59.3196 35.4479 59.3488C35.419 59.378 35.3961 59.4126 35.3806 59.4507C35.3651 59.4887 35.3573 59.5295 35.3575 59.5706V79.2768C35.3575 79.4499 35.4975 79.5912 35.6688 79.5912H39.4344C39.4755 79.591 39.5161 79.5826 39.554 79.5666C39.5918 79.5507 39.6262 79.5274 39.655 79.4981C39.6839 79.4689 39.7067 79.4342 39.7221 79.3961C39.7376 79.358 39.7453 79.3173 39.745 79.2762V70.8475H45.615L45.605 79.2762C45.605 79.45 45.745 79.5912 45.9175 79.5912H49.6912C49.7323 79.591 49.773 79.5826 49.8108 79.5666C49.8487 79.5507 49.883 79.5274 49.9119 79.4981C49.9407 79.4689 49.9635 79.4342 49.979 79.3961C49.9944 79.358 50.0022 79.3173 50.0019 79.2762V59.5699C50.0023 59.5289 49.9946 59.4882 49.9791 59.4501C49.9637 59.4121 49.9409 59.3775 49.912 59.3483C49.8831 59.3191 49.8487 59.2959 49.8108 59.2801C49.773 59.2643 49.7323 59.2562 49.6912 59.2562ZM20.2125 59.7043C18.8725 59.7043 17.785 60.7999 17.785 62.1562C17.785 63.5106 18.8725 64.6093 20.2125 64.6093C21.5538 64.6093 22.6406 63.5106 22.6406 62.1562C22.6406 60.7999 21.5531 59.7043 20.2125 59.7043ZM22.06 65.7093H18.3063C18.1338 65.7093 17.98 65.8868 17.98 66.0593V79.0918C17.98 79.4749 18.2188 79.5887 18.5275 79.5887H21.9088C22.2806 79.5887 22.3713 79.4062 22.3713 79.0856V66.0237C22.3714 65.9827 22.3635 65.942 22.3479 65.904C22.3324 65.866 22.3095 65.8315 22.2806 65.8024C22.2517 65.7732 22.2173 65.7501 22.1795 65.7342C22.1416 65.7184 22.101 65.7095 22.06 65.7093ZM64.3138 65.7387H60.5762C60.5352 65.739 60.4946 65.7474 60.4568 65.7634C60.4191 65.7794 60.3848 65.8027 60.356 65.832C60.3272 65.8612 60.3045 65.8959 60.2891 65.9339C60.2737 65.972 60.2659 66.0127 60.2663 66.0537V75.7162C60.2663 75.7162 59.3162 76.4099 57.9694 76.4099C56.6225 76.4099 56.265 75.7993 56.265 74.4799V66.0537C56.2653 66.0126 56.2576 65.9719 56.2421 65.9338C56.2267 65.8957 56.2039 65.861 56.175 65.8318C56.1462 65.8025 56.1118 65.7792 56.074 65.7633C56.0361 65.7473 55.9955 65.7389 55.9544 65.7387H52.1619C52.0789 65.7394 51.9995 65.7729 51.9412 65.8319C51.8829 65.891 51.8503 65.9707 51.8506 66.0537V75.1175C51.8506 79.0362 54.035 79.9949 57.0394 79.9949C59.5044 79.9949 61.4919 78.6324 61.4919 78.6324C61.4919 78.6324 61.5856 79.3512 61.6294 79.4356C61.6731 79.5206 61.7837 79.6062 61.9044 79.6062L64.3169 79.5956C64.3581 79.5954 64.3988 79.5871 64.4368 79.5712C64.4748 79.5553 64.5093 79.532 64.5384 79.5028C64.5674 79.4735 64.5904 79.4389 64.606 79.4007C64.6216 79.3626 64.6295 79.3218 64.6294 79.2806L64.6275 66.0518C64.6272 65.9689 64.5942 65.8895 64.5357 65.8308C64.4772 65.772 64.3979 65.7387 64.315 65.7381L64.3138 65.7387ZM74.5275 65.2962C72.405 65.2962 70.9613 66.2431 70.9613 66.2431V59.5699C70.9615 59.5289 70.9537 59.4882 70.9382 59.4502C70.9227 59.4122 70.8999 59.3776 70.871 59.3484C70.8422 59.3192 70.8079 59.296 70.7701 59.2801C70.7323 59.2641 70.6917 59.2558 70.6506 59.2556H66.875C66.8338 59.2556 66.793 59.2637 66.755 59.2795C66.7169 59.2954 66.6824 59.3185 66.6534 59.3478C66.6243 59.377 66.6013 59.4117 66.5857 59.4498C66.5702 59.4879 66.5623 59.5288 66.5625 59.5699V79.2762C66.5623 79.3174 66.5702 79.3582 66.5857 79.3964C66.6013 79.4345 66.6243 79.4692 66.6534 79.4984C66.6824 79.5276 66.7169 79.5508 66.755 79.5666C66.793 79.5824 66.8338 79.5906 66.875 79.5906H69.495C69.6138 79.5906 69.7025 79.53 69.7681 79.4231C69.8325 79.3168 69.9269 78.5143 69.9269 78.5143C69.9269 78.5143 71.4706 79.9768 74.3944 79.9768C77.8256 79.9768 79.7944 78.2368 79.7944 72.1631C79.7944 66.0893 76.6506 65.2956 74.5269 65.2956L74.5275 65.2962ZM73.0525 76.3987C71.7569 76.3593 70.8775 75.7712 70.8775 75.7712V69.5306C70.8775 69.5306 71.745 68.9993 72.8088 68.9031C74.1544 68.7825 75.4512 69.1893 75.4512 72.3993C75.4512 75.7849 74.8669 76.4531 73.0531 76.3981L73.0525 76.3987ZM33.2469 76.325C33.0825 76.325 32.6613 76.3918 32.2281 76.3918C30.8406 76.3918 30.37 75.7468 30.37 74.9118V69.3706H33.195C33.2363 69.3706 33.2771 69.3624 33.3152 69.3465C33.3532 69.3307 33.3878 69.3074 33.4169 69.2782C33.4459 69.2489 33.4689 69.2141 33.4844 69.1759C33.5 69.1377 33.5078 69.0968 33.5075 69.0556V66.0206C33.5077 65.9794 33.4997 65.9387 33.4841 65.9006C33.4684 65.8625 33.4454 65.8279 33.4164 65.7988C33.3874 65.7696 33.3529 65.7465 33.3149 65.7307C33.2769 65.7149 33.2361 65.7068 33.195 65.7068H30.37L30.3656 61.9756C30.3656 61.8337 30.2931 61.7631 30.1294 61.7631H26.2794C26.1306 61.7631 26.05 61.8293 26.05 61.9724V65.8287C26.05 65.8287 24.1206 66.2943 23.9906 66.3318C23.9257 66.3508 23.8687 66.3902 23.8281 66.4443C23.7876 66.4984 23.7656 66.5642 23.7656 66.6318V69.0549C23.7654 69.096 23.7732 69.1367 23.7887 69.1747C23.8042 69.2127 23.827 69.2473 23.8558 69.2765C23.8847 69.3057 23.919 69.3289 23.9568 69.3448C23.9946 69.3608 24.0352 69.3691 24.0763 69.3693H26.05V75.1993C26.05 79.5306 29.0875 79.9556 31.1375 79.9556C32.0731 79.9556 33.1938 79.6556 33.3787 79.5868C33.4913 79.5449 33.5556 79.4293 33.5556 79.3037L33.5581 76.6381C33.5568 76.5555 33.5235 76.4766 33.4653 76.4181C33.407 76.3595 33.3282 76.3259 33.2456 76.3243L33.2469 76.325Z" fill="#33415A"/>
</g>
<defs>
<clipPath id="clip0_21_94">
<rect width="80" height="80" fill="white"/>
</clipPath>
</defs>
</svg>
