<svg width="80" height="80" viewBox="0 0 80 80" fill="none" xmlns="http://www.w3.org/2000/svg">
<path d="M12.2938 16.25L17.3369 72.8081L39.9656 79.0894L62.6575 72.8L67.7063 16.25H12.2938ZM55.55 47.805L54.0812 61.4875L54.0869 62.6594L40 66.5937L39.9887 66.6037L25.7894 62.7131L24.8288 51.875H31.7919L32.2856 57.3537L40.0025 59.4131L40 59.4225V59.4025L47.7463 57.2181L48.5638 48.125H32.3719L32.2331 46.6531L31.9169 43.1237L31.7512 41.25H49.18L49.8138 34.375H23.2681L23.1288 32.7569L22.8125 28.9881L22.6469 26.875H57.395L57.2281 28.9587L55.55 47.805ZM55.625 8.98375L51.1569 3.75H55.625V0.625H45.625V3.35187L50.8688 8.125H45.625V11.25H55.625V8.98375ZM43.75 8.98375L39.4956 3.75H43.75V0.625H34.375V3.35187L39.2081 8.125H34.375V11.25H43.75V8.98375ZM32.5 8.125H27.5V3.75H32.5V0.625H23.75V11.25H32.5V8.125Z" fill="#33415A"/>
</svg>
