<svg width="80" height="80" viewBox="0 0 80 80" fill="none" xmlns="http://www.w3.org/2000/svg">
<g clip-path="url(#clip0_21_86)">
<path d="M37.1188 0.0949465C36.8162 0.126822 35.8719 0.238697 35.0387 0.336821C31.68 0.719947 27.8713 1.7287 24.5288 3.13682C12.4319 8.1912 3.3275 19.2806 0.815627 31.9999C0.224377 35.0249 0.0806274 36.5112 0.0806274 39.9999C0.0806274 44.4968 0.527503 47.5999 1.71188 51.5212C5.58375 64.3524 15.6638 74.4162 28.5281 78.3031C32.4 79.4725 35.52 79.9193 40 79.9193C44.4969 79.9193 47.6 79.4725 51.5213 78.2881C64.3525 74.4162 74.4163 64.3362 78.3031 51.4718C79.4725 47.5999 79.9194 44.4799 79.9194 39.9999C79.9194 38.0956 79.8244 35.9206 79.7119 35.1193C78.4156 25.8718 74.6069 18.0956 68.2569 11.7431C61.9188 5.43932 54.175 1.6162 45.1188 0.319947C43.8713 0.143697 38.095 -0.0175535 37.1188 0.0949465ZM24.0794 25.2949C24.9294 25.5512 25.3269 25.7912 25.9031 26.3668C27.0238 27.5043 27.28 28.1274 27.28 29.8387C27.28 31.1206 27.2313 31.3599 26.8481 32.0312C26.1106 33.2787 24.3994 34.4312 23.2156 34.4624C22.3825 34.4799 22.4169 34.1112 23.3281 33.1518C24.5438 31.8874 24.7194 31.4081 24.7194 29.5187C24.7044 27.6956 24.48 27.0724 23.6325 26.5599C22.9275 26.1281 22.1606 26.1599 21.04 26.6868C18.1275 28.0806 14.9756 32.7199 13.745 37.4731C12.1119 43.8087 15.0075 48.8793 19.7756 48.0149C21.1669 47.7587 23.7913 46.4162 24.9294 45.3587C25.8719 44.4968 25.8719 44.4799 25.9669 43.4087C26.1769 41.1668 27.7588 38.9281 29.8731 37.8881C30.8469 37.4068 31.0888 37.3606 32.4 37.3606C33.6475 37.3606 33.9356 37.4243 34.5438 37.7587C36.4794 38.8649 36.0794 41.4399 33.9844 41.4399C32.7688 41.4399 32.1438 40.8149 33.025 40.4812C33.8894 40.1612 33.5669 38.9599 32.5613 38.6887C31.3769 38.3837 30.0319 39.1843 29.1844 40.7199C28.1594 42.5762 28.1125 44.7849 29.0869 45.7912C30.0319 46.7993 31.2156 46.0012 32.1287 43.7106C32.6075 42.5437 33.2956 41.9187 34.0969 41.9187C34.8 41.9187 34.9294 42.3512 34.6237 43.6643C34.175 45.6956 34.48 46.2231 35.7444 45.6006C36.1594 45.4074 36.8481 44.9612 37.2631 44.6412L38.0469 44.0162L38.5769 41.2475C39.1531 38.1443 39.375 37.7268 40.5594 37.5049C41.6969 37.2949 41.9531 37.8562 41.5356 39.6312L41.3106 40.6249L42.1438 39.7749C44.1113 37.7587 46.5281 36.7674 47.3606 37.5999C47.8075 38.0468 47.7588 38.6081 47.1194 40.5906C46.8163 41.5356 46.3988 43.0249 46.2088 43.8718C45.9206 45.1512 45.9031 45.4562 46.065 45.6643C46.5775 46.2718 48.1444 45.6468 49.5363 44.2868L50.3519 43.4887L50.4494 41.7112C50.5444 39.6631 50.735 38.9281 51.2794 38.2712C51.7919 37.6637 52.72 37.2168 53.2156 37.3437C53.7113 37.4731 53.7113 37.9518 53.2644 39.3606C52.6394 41.2962 52.705 45.7593 53.345 45.7593C53.6013 45.7593 54.9119 44.3843 55.745 43.2324L56.3675 42.3824L55.8719 41.8725C55.0075 40.9599 54.8 40.3687 54.8 38.8793C54.8 37.7931 54.8806 37.3924 55.1513 36.8624C55.6006 36.0324 56.3038 35.4249 57.1363 35.1831C58.015 34.9118 59.1038 35.3587 59.5506 36.1593C60 36.9749 59.8881 38.7987 59.3113 40.0487L58.8963 40.9593H59.4556C60.2244 40.9593 60.5275 40.7687 61.9044 39.4724C62.6244 38.7843 63.4569 38.1912 64.0794 37.9031C66.5281 36.7531 69.4094 37.3437 69.8875 39.1037C70.2875 40.5124 69.4094 41.5037 67.8713 41.3912C66.7675 41.3112 66.56 41.0224 67.2 40.4812C68.3519 39.5187 67.2 38.2887 65.5519 38.7356C64.6556 38.9768 63.6475 39.9831 63.1206 41.1525C62.0631 43.4887 62.6244 46.2399 64.1431 46.2399C64.7513 46.2399 65.825 45.0393 66.24 43.8718C66.7356 42.5268 67.7756 41.68 68.5594 41.9843C68.9919 42.1437 69.0238 42.5756 68.7525 43.9356C68.4475 45.4249 68.4006 46.8168 68.64 47.4562C68.7356 47.695 69.0238 48.1443 69.2969 48.4474C69.8069 49.0231 69.8244 49.2312 69.3919 49.5043C69.1844 49.6481 68.9106 49.5849 68.24 49.2168C67.3119 48.7356 66.5113 47.8712 66.2231 47.0556L66.0475 46.5768L65.4075 47.0556C65.0388 47.3118 64.4631 47.5999 64.1281 47.6949C62.8 48.0468 61.1669 47.1362 60.4006 45.6006C60.095 45.0068 60 43.2643 60.2244 42.5924C60.3519 42.2237 60.3519 42.2237 59.8388 42.4799C59.5681 42.6243 58.9919 42.7831 58.545 42.8318C57.8075 42.9131 57.695 42.9931 56.9606 43.9206C55.9206 45.2143 54.0794 46.9606 53.3275 47.3293C51.7288 48.1274 51.2013 47.9031 50.7838 46.2543L50.4956 45.1512L49.8069 45.7593C48.9281 46.5281 47.1681 47.4562 46.1594 47.6806C45.2 47.8881 44.175 47.5831 43.7594 46.9431C43.1375 45.9837 43.345 43.9524 44.3356 41.2156C45.0706 39.1843 44.5438 39.1531 42.6881 41.0887C41.3113 42.5437 40.72 43.5837 40.3369 45.1999C39.9369 46.8799 39.4556 47.4874 38.3694 47.7437C37.7125 47.8881 37.4069 47.4874 37.5369 46.6087L37.6319 45.9031L37.0238 46.3206C36.1594 46.9118 35.0706 47.4562 34.3188 47.6637C33.5669 47.8712 32.5756 47.6487 32.3363 47.2312C31.9044 46.4968 31.9044 46.4968 31.2331 47.0237C29.7756 48.2081 27.6956 47.8712 26.6406 46.3037L26.3031 45.8081L25.2488 46.7843C22.2069 49.5681 18.4006 50.8156 15.5838 49.9512C11.9994 48.8649 10.0169 45.7912 10.0488 41.36C10.0638 36.9118 12.0313 32.2243 15.3444 28.7524C17.2169 26.7993 18.9769 25.6468 20.7694 25.2149C22.0631 24.8949 22.8494 24.9112 24.0794 25.2949Z" fill="#33415A"/>
<path d="M56.5113 36.6725C56.1594 37.0237 56.2888 38.4325 56.7363 39.3287C56.9606 39.7925 57.2 40.1612 57.28 40.1612C57.3438 40.1612 57.4875 39.7925 57.6 39.3431C58 37.6806 57.28 35.9031 56.5113 36.6725Z" fill="#33415A"/>
</g>
<defs>
<clipPath id="clip0_21_86">
<rect width="80" height="80" fill="white"/>
</clipPath>
</defs>
</svg>
