<svg width="80" height="80" viewBox="0 0 80 80" fill="none" xmlns="http://www.w3.org/2000/svg">
<path d="M12.2306 16.875L17.285 73.0743L39.9656 79.1256L62.7094 73.1887L67.7694 16.875H12.2306ZM57.2563 29.6693L56.9394 33.3156L56.8 35H30.1944L30.83 42.5H56.1675L55.9981 43.8943L54.3638 61.9625L54.2438 63.0187L40 66.8525V66.8493L39.9831 66.8568L25.7475 63.1593L24.7813 52.5H31.7613L32.2556 57.7875L39.9963 59.7493L40 59.6031V59.6106L47.7575 57.955L48.5675 49.375H24.4706L22.7619 30.1025L22.595 28.125H57.4225L57.2563 29.6693ZM17.4725 1.01685H20.9862V4.48935H24.2013V1.01685H27.7156V11.5306H24.2013V8.00997H20.9869V11.5306H17.4725V1.01685ZM32.3363 4.50372H29.2425V1.01685H38.9456V4.50372H35.8506V11.5306H32.3363V4.50372ZM40.4856 1.01685H44.1494L46.4038 4.71122L48.6556 1.01685H52.3213V11.5306H48.8206V6.31934L46.4038 10.0575H46.3425L43.9238 6.31934V11.5306H40.485L40.4856 1.01685ZM54.0706 1.01685H57.5856V8.05559H62.5275V11.5312H54.0706V1.01685Z" fill="#33415A"/>
</svg>
