<svg width="80" height="80" viewBox="0 0 80 80" fill="none" xmlns="http://www.w3.org/2000/svg">
<path d="M25 42.5V36.2007C25 31.8425 28.8862 28.125 33.3644 28.125H46.5531C50.2244 28.125 52.5 24.975 52.5 21.2888V8.71566C52.5 5.13691 49.8087 2.44941 46.225 1.85253C44.0064 1.48088 41.7601 1.30063 39.5106 1.31378C37.2537 1.32441 34.9237 1.51628 33.0269 1.85253C27.4387 2.83878 26.25 4.90503 26.25 8.71566V13.75H39.375V15.625H21.8069C17.9694 15.625 14.6094 17.8313 13.5581 22.22C12.3463 27.2494 12.2925 30.4713 13.5581 35.7232C14.4969 39.6319 16.7388 42.5 20.5756 42.5H25ZM32.5338 10.3925C31.165 10.3925 30.0562 9.27066 30.0562 7.88441C30.0562 6.49128 31.1644 5.36003 32.5338 5.36003C33.8975 5.36003 35.0113 6.49191 35.0113 7.88441C35.0113 9.27066 33.8975 10.3925 32.5338 10.3925ZM66.3594 22.22C65.4112 18.3988 63.5994 15.625 59.7575 15.625H54.375V21.2888C54.375 25.8344 50.9475 30 46.5531 30H33.3644C29.7519 30 26.25 32.7519 26.25 36.3707V48.9438C26.25 52.5219 29.6175 54.6269 33.1087 55.6525C37.2875 56.8819 41.0969 57.1038 46.0975 55.6525C49.4212 54.69 52.5 52.7538 52.5 48.9438V44.375H39.375V42.5H59.7569C63.5944 42.5 65.0244 39.74 66.3588 35.7232C67.7375 31.5869 67.6788 27.5263 66.3594 22.22ZM47.3838 47.2657C48.7525 47.2657 49.8619 48.3875 49.8619 49.775C49.8619 51.1669 48.7531 52.2982 47.3838 52.2982C46.02 52.2982 44.9069 51.1663 44.9069 49.775C44.9069 48.3875 46.02 47.2657 47.3838 47.2657ZM21.8194 70.0307C21.8194 67.6825 21.1494 66.4769 19.8106 66.4113C19.2786 66.3853 18.7471 66.4725 18.2513 66.6669C17.8475 66.8113 17.575 66.955 17.4319 67.0994V72.7044C18.2888 73.2419 19.0494 73.4919 19.7125 73.4525C21.1169 73.36 21.8194 72.2207 21.8194 70.0307ZM23.4713 70.1288C23.4713 71.3219 23.1919 72.3119 22.6288 73.0994C22.0019 73.9913 21.1325 74.4494 20.0213 74.475C19.1838 74.5019 18.3206 74.2388 17.4325 73.6888V78.7832L15.9963 78.2707V66.9625C16.2319 66.6738 16.535 66.4257 16.9031 66.215C17.7581 65.7163 18.7975 65.4607 20.02 65.4475L20.0406 65.4675C21.1581 65.4538 22.0194 65.9125 22.6244 66.8432C23.1881 67.6969 23.4713 68.7913 23.4713 70.1288ZM32.2519 73.4719C32.2519 75.0719 32.0913 76.18 31.7706 76.7957C31.4481 77.4119 30.835 77.9038 29.93 78.27C29.1963 78.5594 28.4025 78.7163 27.55 78.7432L27.3125 77.8382C28.1788 77.7207 28.7887 77.6019 29.1425 77.4844C29.8387 77.2488 30.3162 76.8875 30.5787 76.4032C30.7894 76.0088 30.8931 75.2563 30.8931 74.1419V73.7675C29.924 74.2103 28.8705 74.438 27.805 74.435C27.0975 74.435 26.4738 74.2138 25.9363 73.7675C25.3325 73.2819 25.0306 72.665 25.0306 71.9188V65.94L26.4675 65.4482V71.4669C26.4675 72.1094 26.675 72.6044 27.09 72.9519C27.505 73.2994 28.0425 73.4657 28.7013 73.4538C29.36 73.44 30.0656 73.1844 30.815 72.6863V65.665H32.2519V73.4719ZM37.86 74.3963C37.7026 74.4093 37.5448 74.4159 37.3869 74.4163C36.5744 74.4163 35.9406 74.2232 35.4881 73.835C35.0369 73.4463 34.8106 72.9107 34.8106 72.2269V66.5682H33.8269V65.6644H34.8106V63.2644L36.2456 62.7538V65.6644H37.86V66.5682H36.2456V72.1875C36.2456 72.7263 36.39 73.1088 36.6794 73.3313C36.9275 73.5157 37.3225 73.6207 37.86 73.6475V74.3963ZM46.5581 74.2782H45.1219V68.7325C45.1219 68.1688 44.99 67.6825 44.7275 67.2769C44.4244 66.8182 44.0031 66.5882 43.4625 66.5882C42.8038 66.5882 41.98 66.9357 40.9912 67.6307V74.2782H39.555V61.0232L40.9912 60.57V66.6069C41.9094 65.9394 42.9119 65.6044 44.0013 65.6044C44.7625 65.6044 45.3781 65.8607 45.85 66.3719C46.3231 66.8825 46.5588 67.5194 46.5588 68.28V74.2782H46.5581ZM54.1944 69.805C54.1944 68.9025 54.0231 68.1575 53.6819 67.5682C53.2762 66.85 52.6463 66.4707 51.7938 66.4319C50.2188 66.5232 49.4325 67.6513 49.4325 69.8144C49.4325 70.8063 49.5963 71.6344 49.9263 72.2994C50.3475 73.1469 50.9794 73.5644 51.8219 73.5507C53.4037 73.5382 54.1944 72.29 54.1944 69.805ZM55.7681 69.8144C55.7681 71.0988 55.4394 72.1675 54.7837 73.0213C54.0625 73.9763 53.0656 74.4563 51.7944 74.4563C50.5338 74.4563 49.5513 73.9763 48.8425 73.0213C48.2 72.1675 47.8788 71.0988 47.8788 69.8144C47.8788 68.6069 48.2263 67.5919 48.9213 66.765C49.655 65.8882 50.62 65.4482 51.8131 65.4482C53.0063 65.4482 53.9775 65.8882 54.7256 66.765C55.42 67.5919 55.7681 68.6069 55.7681 69.8144ZM64.0044 74.2782H62.5675V68.4182C62.5675 67.7757 62.3737 67.2738 61.9875 66.9125C61.6006 66.5525 61.0856 66.3782 60.4425 66.3919C59.7606 66.405 59.1112 66.6282 58.495 67.06V74.2782H57.0581V66.8825C57.885 66.2807 58.6456 65.8875 59.3406 65.7038C59.9962 65.5325 60.5744 65.4475 61.0725 65.4475C61.4131 65.4475 61.7344 65.4807 62.0362 65.5463C62.6006 65.6769 63.0594 65.9188 63.4131 66.2738C63.8075 66.6669 64.0044 67.1388 64.0044 67.6907V74.2782Z" fill="#33415A"/>
</svg>
