<svg width="64" height="64" viewBox="0 0 64 64" fill="none" xmlns="http://www.w3.org/2000/svg">
<path d="M41.3478 43.4708C40.6329 43.4708 40.0536 44.0532 40.0536 44.7703C40.0536 45.1597 40.2249 45.509 40.4952 45.7473L38.4816 53.1166H30.6026L34.3913 36.0576C34.436 35.8573 34.3869 35.6465 34.2588 35.4864C34.1307 35.3256 33.9371 35.2325 33.7323 35.2325H23.2805C22.9782 35.2325 22.7131 35.4343 22.6312 35.7262L17.7448 53.1166H7.96468L18.5617 14.9036C19.0926 14.7413 19.4784 14.2461 19.4784 13.6608C19.4784 12.9437 18.899 12.3613 18.1842 12.3613C17.4686 12.3613 16.8892 12.9437 16.8892 13.6608C16.8892 14.0123 17.0285 14.3302 17.2541 14.5648L6.42475 53.6125C6.36816 53.8173 6.40986 54.0363 6.53794 54.2045C6.66527 54.3736 6.86409 54.4719 7.07557 54.4719H18.2556C18.558 54.4719 18.8238 54.2701 18.9057 53.9782L23.7921 36.5885H32.8894L29.1014 53.6475C29.0567 53.8479 29.1051 54.0586 29.2332 54.218C29.3613 54.3788 29.5556 54.4719 29.7604 54.4719H38.9962C39.3 54.4719 39.5673 54.2678 39.647 53.9737L41.834 45.9744C42.3076 45.7815 42.6427 45.3154 42.6427 44.7703C42.6427 44.0532 42.0634 43.4708 41.3478 43.4708Z" fill="#00FCF8"/>
<path d="M22.6522 20.6012C23.3671 20.6012 23.9464 20.0189 23.9464 19.3017C23.9464 18.9123 23.7751 18.563 23.5048 18.3247L25.5184 10.9554L33.3974 10.9554L29.6087 28.0144C29.564 28.2147 29.6131 28.4255 29.7412 28.5856C29.8693 28.7464 30.0629 28.8395 30.2677 28.8395H40.7195C41.0218 28.8395 41.2869 28.6377 41.3688 28.3458L46.2552 10.9554H56.0353L45.4383 49.1684C44.9074 49.3307 44.5216 49.8259 44.5216 50.4112C44.5216 51.1284 45.101 51.7107 45.8158 51.7107C46.5314 51.7107 47.1108 51.1284 47.1108 50.4112C47.1108 50.0598 46.9715 49.7418 46.7459 49.5072L57.5752 10.4595C57.6318 10.2547 57.5901 10.0358 57.4621 9.86747C57.3347 9.69843 57.1359 9.60013 56.9244 9.60013H45.7444C45.442 9.60013 45.1762 9.80194 45.0943 10.0939L40.2079 27.4835H31.1106L34.8986 10.4245C34.9433 10.2242 34.8949 10.0134 34.7668 9.85407C34.6387 9.69322 34.4444 9.60013 34.2396 9.60013L25.0038 9.60013C24.7 9.60013 24.4327 9.80418 24.353 10.0983L22.166 18.0976C21.6924 18.2905 21.3573 18.7566 21.3573 19.3017C21.3573 20.0189 21.9366 20.6012 22.6522 20.6012Z" fill="#00FCF8"/>
</svg>
