<svg width="16" height="16" viewBox="0 0 16 16" fill="none" xmlns="http://www.w3.org/2000/svg">
<g clip-path="url(#clip0_35_2)">
<mask id="mask0_35_2" style="mask-type:luminance" maskUnits="userSpaceOnUse" x="0" y="0" width="16" height="16">
<path d="M1.6 0H14.4C15.2837 0 16 0.716333 16 1.6V14.4C16 15.2837 15.2837 16 14.4 16H1.6C0.716333 16 0 15.2837 0 14.4V1.6C0 0.716333 0.716333 0 1.6 0Z" fill="white"/>
</mask>
<g mask="url(#mask0_35_2)">
<path d="M17.6 -1.6001H-1.59998V17.5999H17.6V-1.6001Z" fill="#1B2133"/>
</g>
<path d="M10.3369 10.8677C10.1582 10.8677 10.0134 11.0133 10.0134 11.1926C10.0134 11.2899 10.0562 11.3772 10.1238 11.4368L9.62038 13.2791H7.65061L8.5978 9.0144C8.60897 8.96432 8.59668 8.91163 8.56466 8.87161C8.53264 8.8314 8.48424 8.80812 8.43305 8.80812H5.82009C5.74451 8.80812 5.67824 8.85858 5.65776 8.93155L4.43617 13.2791H1.99114L4.64039 3.72591C4.77313 3.68533 4.86956 3.56152 4.86956 3.4152C4.86956 3.23592 4.72472 3.09033 4.54601 3.09033C4.36711 3.09033 4.22228 3.23592 4.22228 3.4152C4.22228 3.50307 4.25709 3.58256 4.31349 3.6412L1.60616 13.4031C1.59201 13.4543 1.60243 13.5091 1.63445 13.5511C1.66629 13.5934 1.71599 13.618 1.76886 13.618H4.56388C4.63946 13.618 4.70592 13.5675 4.7264 13.4945L5.94799 9.14714H8.22231L7.27531 13.4119C7.26414 13.462 7.27624 13.5146 7.30826 13.5545C7.34028 13.5947 7.38887 13.618 7.44007 13.618H9.74902C9.82497 13.618 9.8918 13.567 9.91172 13.4934L10.4585 11.4936C10.5769 11.4454 10.6606 11.3288 10.6606 11.1926C10.6606 11.0133 10.5158 10.8677 10.3369 10.8677Z" fill="#00FCF8"/>
<path d="M5.66309 5.15012C5.8418 5.15012 5.98663 5.00453 5.98663 4.82525C5.98663 4.72789 5.94382 4.64057 5.87624 4.581L6.37962 2.73868L8.34939 2.73868L7.4022 7.00342C7.39103 7.0535 7.40332 7.10619 7.43534 7.14621C7.46736 7.18643 7.51576 7.2097 7.56695 7.2097H10.1799C10.2555 7.2097 10.3218 7.15925 10.3422 7.08627L11.5638 2.73868H14.0089L11.3596 12.2919C11.2269 12.3325 11.1304 12.4563 11.1304 12.6026C11.1304 12.7819 11.2753 12.9275 11.454 12.9275C11.6329 12.9275 11.7777 12.7819 11.7777 12.6026C11.7777 12.5148 11.7429 12.4353 11.6865 12.3766L14.3938 2.61469C14.408 2.56349 14.3976 2.50876 14.3655 2.46669C14.3337 2.42443 14.284 2.39985 14.2311 2.39985H11.4361C11.3605 2.39985 11.2941 2.4503 11.2736 2.52328L10.052 6.87069H7.77769L8.72469 2.60594C8.73586 2.55586 8.72376 2.50317 8.69174 2.46333C8.65972 2.42312 8.61113 2.39985 8.55993 2.39985L6.25098 2.39985C6.17503 2.39985 6.1082 2.45086 6.08828 2.5244L5.54152 4.52422C5.42312 4.57244 5.33935 4.68898 5.33935 4.82525C5.33935 5.00453 5.48418 5.15012 5.66309 5.15012Z" fill="#00FCF8"/>
</g>
<defs>
<clipPath id="clip0_35_2">
<rect width="16" height="16" fill="white"/>
</clipPath>
</defs>
</svg>
